<svg id="desk-lamp" enable-background="new 0 0 512.03 512.03" height="512" viewBox="0 0 512.03 512.03" width="512" xmlns="http://www.w3.org/2000/svg"><g><g clip-rule="evenodd" fill-rule="evenodd"><path d="m230.165 216.28-140.4-140.4c-12.262 5.213-23.749 12.82-33.749 22.82l75.664 75.664 75.664 75.664c10-9.999 17.607-21.486 22.821-33.748z" fill="#99ebfa"/><path d="m89.765 75.879 140.4 140.4c10.708-25.182 11.322-53.634 1.845-79.192-5.193-14.002-13.415-27.136-24.666-38.387-11.251-11.252-24.385-19.473-38.388-24.666-25.558-9.477-54.009-8.862-79.191 1.845z" fill="#ccf5fc"/><path d="m207.344 98.7c11.251 11.251 19.473 24.385 24.666 38.387l24.717-24.718 26.283-26.283c.671-.671 1.316-1.358 1.935-2.061 15.379-17.458 14.734-44.324-1.935-60.992-17.34-17.34-45.714-17.34-63.053 0l-51.001 51.001c14.002 5.193 27.136 13.415 38.388 24.666z" fill="#99ebfa"/><path d="m256.727 112.37 120.64 120.64c3.681-13.762 14.519-24.6 28.283-28.279l-120.705-120.705c-.619.703-1.264 1.39-1.935 2.061z" fill="#fff"/><path d="m405.648 204.728c-13.762 3.682-24.6 14.519-28.281 28.281-.884 3.305-1.356 6.78-1.356 10.364 0 7.29 1.95 14.124 5.357 20.01 6.918 11.951 19.842 19.991 34.644 19.991 22.092 0 40.001-17.909 40.001-40.001s-17.909-40.001-40.001-40.001c-3.584.001-7.058.472-10.364 1.356z" fill="#99ebfa"/><path d="m347.503 402.031h-46.183-25.805c-10.996 0-20 9.004-20 20v20h129.996v-20c0-11-9.004-20-20-20z" fill="#99ebfa"/><path d="m385.511 442.03h-129.996-35.002c-11 0-20 9-20 19.999v40.001h240v-40c0-11-9-19.999-20-19.999h-35.002z" fill="#ccf5fc"/><path d="m301.32 402.031h46.183l68.509-118.656c-14.802 0-27.727-8.04-34.645-19.991z" fill="#fff"/></g><g fill="#8481e2"><path d="m466.014 243.374c0-27.571-22.431-50.001-50.001-50.001-2.4 0-4.758.18-7.069.509l-110.88-110.88c12.828-21.012 10.176-48.881-7.983-67.04-21.283-21.282-55.913-21.283-77.196 0l-46.583 46.583c-11.07-3.413-22.709-5.186-34.623-5.186-13.673 0-26.988 2.33-39.492 6.801l-.816-.816c-3.905-3.905-10.237-3.905-14.143 0-2.42 2.42-3.337 5.771-2.758 8.899-9.24 5.195-17.827 11.685-25.527 19.386-3.905 3.905-3.905 10.237 0 14.143l75.664 75.664 75.664 75.664c1.953 1.953 4.512 2.929 7.071 2.929s5.119-.976 7.071-2.929c7.774-7.774 14.221-16.381 19.345-25.534.617.117 1.243.177 1.868.177 2.559 0 5.119-.976 7.071-2.929 3.905-3.905 3.905-10.237 0-14.143l-.875-.875c8.49-23.832 9.026-49.882 1.613-73.995l13.289-13.289 109.796 109.794c-.328 2.311-.509 4.668-.509 7.068 0 6.969 1.437 13.607 4.024 19.639l-74.489 129.018h-20.032c-16.542 0-30 13.458-30 30v9.999h-25.002c-16.542 0-30 13.458-30 30v40c0 5.523 4.477 10 10 10h240c5.523 0 10-4.477 10-10v-40c0-16.542-13.458-30-30-30h-25.002v-9.999c0-16.542-13.458-30-30-30h-.688l57.173-99.027c24.76-2.967 44.019-24.085 44.019-49.63zm-20 0c0 16.542-13.458 30.001-30.001 30.001s-30.001-13.458-30.001-30.001 13.458-30.001 30.001-30.001 30.001 13.458 30.001 30.001zm-239.032-7.849-68.231-68.231-68.235-68.236c5.338-4.352 11.073-8.085 17.114-11.171l130.481 130.481c-3.053 6.006-6.746 11.768-11.129 17.157zm-98.741-155.312c7.578-1.872 15.431-2.854 23.438-2.854 25.911 0 50.271 10.09 68.593 28.412 24.894 24.894 33.379 60.058 25.504 91.976zm106.174 11.416c-8.415-8.414-17.887-15.385-28.115-20.796l40.728-40.728c13.485-13.485 35.427-13.484 48.911 0 13.485 13.485 13.485 35.426 0 48.911l-40.759 40.759c-5.335-10.13-12.255-19.636-20.765-28.146zm56.455 20.741 14.139-14.139 103.449 103.448c-5.606 3.718-10.421 8.533-14.139 14.139zm159.644 349.66v30h-220v-30c0-5.514 4.486-10 10-10h200c5.514 0 10 4.486 10 10zm-55.003-39.999v9.999h-109.996v-9.999c0-5.514 4.486-10 10-10h89.997c5.513 0 9.999 4.486 9.999 10zm-56.87-30 64.235-111.258c4.984 4.421 10.853 7.858 17.305 10.018l-58.451 101.24z"/><path d="m416.016 253.374c5.523 0 10-4.477 10-10s-4.477-10-10-10h-.007c-5.523 0-9.997 4.477-9.997 10s4.481 10 10.004 10z"/><path d="m232.487 63.56h-.007c-5.523 0-9.997 4.477-9.997 10s4.48 10 10.003 10 10-4.477 10-10-4.476-10-9.999-10z"/></g></g></svg>