<svg id="Capa_1" enable-background="new 0 0 512 512" height="512" viewBox="0 0 512 512" width="512" xmlns="http://www.w3.org/2000/svg" xmlns:xlink="http://www.w3.org/1999/xlink"><linearGradient id="SVGID_1_" gradientUnits="userSpaceOnUse" x1="96.524" x2="444.685" y1="454.007" y2="39.084"><stop offset="0" stop-color="#d2deff" stop-opacity="0"/><stop offset=".6852" stop-color="#d2deff"/></linearGradient><path d="m4.896 324.567c17.448 172.871 292.417 167.142 420.804 136.265 82.47-19.834 87.596-59.472 86.106-144.001-.96-54.486 3.443-198.725-32.004-244.123-54.448-69.733-103.228-25.998-170.656-3.235-86.488 29.197-120.189-22.932-202.476-21.38-120.641 2.278-110.779 187.252-101.774 276.474z" fill="url(#SVGID_1_)"/><path d="m454.631 297.242 8.243-22.647c.945-2.595-.393-5.464-2.988-6.408l-13.787-5.018c1.255-8.927 1.902-17.962 1.902-26.957 0-49.418-18.765-94.536-49.552-128.595-4.075-4.508-11.088-4.334-14.959.104-11.51-11.698-24.599-21.831-38.891-29.996-26.856-15.344-57.493-23.454-88.599-23.454-31.107 0-61.744 8.11-88.598 23.453-14.293 8.166-27.381 18.299-38.892 29.996-3.871-4.438-10.884-4.612-14.959-.104-30.786 34.06-49.551 79.178-49.551 128.596 0 9 .646 18.036 1.901 26.957l-13.786 5.018c-2.595.944-3.933 3.814-2.988 6.408l8.243 22.647c-29.83 26.692-43.86 68.14-34.722 108.509.669 2.949 3.753 4.668 6.6 3.632l13.794-5.021c.724 2.759 1.575 5.509 2.57 8.242 17.43 47.889 70.381 72.58 118.27 55.15s72.58-70.382 55.15-118.27c-.995-2.733-2.111-5.387-3.33-7.966l13.794-5.021c2.847-1.036 4.105-4.336 2.722-7.025-18.949-36.798-56.339-59.531-96.347-60.804l-8.243-22.647c-.945-2.595-3.814-3.933-6.409-2.988l-20.563 7.484c-.435-4.76-.657-9.54-.657-14.307 0-38.828 14.259-74.38 37.803-101.715 2.934-3.406 3.214-8.356.703-12.085l-4.232-6.283c11.194-11.64 24.026-21.688 38.089-29.723 25.347-14.478 54.268-22.133 83.638-22.133s58.291 7.654 83.638 22.135c14.063 8.035 26.895 18.083 38.089 29.723l-4.232 6.283c-2.511 3.729-2.231 8.678.703 12.085 23.543 27.335 37.802 62.887 37.802 101.715 0 4.767-.221 9.547-.657 14.307l-20.563-7.484c-2.595-.944-5.464.393-6.409 2.988l-8.243 22.647c-40.008 1.273-77.398 24.006-96.347 60.804-1.383 2.689-.126 5.988 2.722 7.025l13.794 5.021c-1.219 2.579-2.335 5.232-3.33 7.966-17.43 47.889 7.262 100.84 55.15 118.27 47.889 17.43 100.84-7.262 118.27-55.15.995-2.733 1.846-5.483 2.57-8.242l13.794 5.021c2.847 1.036 5.931-.683 6.6-3.632 9.139-40.371-4.89-81.819-34.72-108.511zm-343.056-27.785 7.377 20.269c-6.09.898-12.18 2.421-18.191 4.609s-11.655 4.936-16.897 8.162l-7.377-20.269zm316.561 33.039c-5.242-3.227-10.887-5.974-16.897-8.162-6.011-2.188-12.101-3.711-18.191-4.609l7.377-20.269 35.088 12.771z" fill="#6583fe" opacity=".2"/><path d="m138.506 102.413c2.511 3.728 2.231 8.678-.703 12.085-23.544 27.334-37.803 62.886-37.803 101.714 0 9.35.84 18.75 2.51 27.95l-35.43 6.41c-2.04-11.3-3.08-22.86-3.08-34.36 0-49.418 18.765-94.536 49.551-128.595 4.364-4.827 12.099-4.29 15.734 1.108z" fill="#6583fe"/><path d="m85.512 127.975c-4.542 8.742-8.432 17.874-11.604 27.333h38.479c4.107-9.648 9.168-18.792 15.045-27.333z" fill="#b7c5ff"/><path d="m448 216.212c0 11.49-1.04 23.05-3.08 34.36l-35.43-6.41c1.67-9.2 2.51-18.6 2.51-27.95 0-38.828-14.259-74.38-37.803-101.715-2.934-3.406-3.214-8.356-.703-12.085l9.22-13.688c3.635-5.397 11.371-5.935 15.734-1.108 30.787 34.06 49.552 79.178 49.552 128.596z" fill="#6583fe"/><path d="m229.496 316.498-82.58 30.057-35.341-97.099-35.088 12.771 35.341 97.099-82.58 30.057c-2.847 1.036-5.931-.683-6.6-3.632-9.138-40.369 4.892-81.817 34.722-108.509l-8.243-22.647c-.944-2.595.393-5.464 2.988-6.409l69.105-25.152c2.595-.944 5.464.393 6.409 2.988l8.243 22.647c40.008 1.273 77.398 24.006 96.347 60.804 1.382 2.69.125 5.989-2.723 7.025z" fill="#b7c5ff"/><circle cx="132.322" cy="361.044" fill="#6583fe" r="92.275"/><path d="m100.28 374.455-24.92 9.07c-2.595.945-5.464-.394-6.409-2.988-.944-2.595.393-5.464 2.988-6.409l24.92-9.07c2.595-.945 5.464.394 6.409 2.988.945 2.595-.392 5.464-2.988 6.409z" fill="#d2deff"/><path d="m282.504 316.498 82.58 30.057 35.341-97.099 35.088 12.771-35.341 97.099 82.58 30.057c2.847 1.036 5.931-.683 6.6-3.632 9.138-40.369-4.892-81.817-34.722-108.509l8.243-22.647c.944-2.595-.393-5.464-2.988-6.409l-69.105-25.152c-2.595-.944-5.464.393-6.409 2.988l-8.243 22.647c-40.008 1.273-77.398 24.006-96.347 60.804-1.382 2.69-.125 5.989 2.723 7.025z" fill="#b7c5ff"/><circle cx="379.678" cy="361.044" fill="#6583fe" r="92.275"/><path d="m460.469 275.822 7.104-19.517c.914-2.51.795-5.226-.334-7.646s-3.134-4.257-5.644-5.17l-10.038-3.653c.941-7.851 1.443-15.782 1.443-23.623 0-48.815-18.057-95.676-50.843-131.948-3.12-3.453-7.568-5.246-12.215-4.914-3.904.278-7.45 2.038-10.025 4.886-10.622-10.229-22.474-19.174-35.318-26.512-26.856-15.344-57.493-23.454-88.599-23.454s-61.744 8.11-88.598 23.453c-12.844 7.338-24.695 16.285-35.323 26.508-2.575-2.845-6.119-4.604-10.021-4.882-4.63-.332-9.094 1.46-12.216 4.914-32.058 35.467-50.106 81.266-50.819 128.958-.041 2.762 2.164 5.033 4.925 5.074 2.739.07 5.033-2.163 5.074-4.924.677-45.267 17.808-88.736 48.239-122.403 1.045-1.155 2.542-1.752 4.087-1.645 1.545.11 2.927.909 3.792 2.193l9.22 13.688c1.252 1.86 1.111 4.339-.345 6.029-25.16 29.209-39.015 66.491-39.015 104.978 0 3.62.129 7.276.374 10.909l-44.969 16.367c-2.51.913-4.514 2.75-5.643 5.17-1.128 2.421-1.247 5.137-.333 7.646l7.103 19.517c-29.982 28.43-42.902 70.65-33.76 111.036.639 2.817 2.458 5.226 4.989 6.606 1.483.809 3.129 1.22 4.783 1.22 1.152 0 2.308-.2 3.414-.603l8.785-3.198c.371 1.147.756 2.291 1.171 3.43 8.887 24.417 26.75 43.911 50.298 54.892 13.078 6.099 27.038 9.166 41.051 9.166 11.219 0 22.473-1.967 33.329-5.919 24.416-8.887 43.91-26.749 54.891-50.298s12.135-49.964 3.248-74.38c-.415-1.14-.869-2.258-1.323-3.376l8.798-3.202c2.694-.979 4.838-3.072 5.884-5.741 1.052-2.686.896-5.699-.426-8.271-18.955-36.812-55.991-60.85-97.233-63.355l-7.103-19.517c-1.886-5.182-7.635-7.861-12.817-5.977l-14.325 5.214c-.118-2.45-.185-4.903-.185-7.338 0-36.093 12.995-71.057 36.591-98.451 4.389-5.095 4.825-12.555 1.062-18.142l-4.783-7.101c10.321-10.11 21.909-18.922 34.493-26.112 25.345-14.479 54.266-22.133 83.636-22.133 29.369 0 58.291 7.654 83.638 22.136 12.585 7.19 24.166 16.01 34.483 26.126l-4.774 7.087c-3.762 5.587-3.325 13.047 1.063 18.141 23.595 27.395 36.59 62.359 36.59 98.451 0 2.432-.082 4.884-.2 7.333l-14.31-5.208c-5.179-1.889-10.932.794-12.816 5.977l-7.104 19.517c-41.241 2.506-78.277 26.544-97.233 63.357-1.322 2.57-1.477 5.584-.425 8.269 1.046 2.669 3.189 4.762 5.883 5.741l8.798 3.202c-.454 1.118-.908 2.236-1.323 3.376-18.345 50.403 7.736 106.333 58.139 124.678 10.858 3.952 22.108 5.919 33.329 5.919 14.012-.001 27.976-3.068 41.052-9.166 23.549-10.98 41.411-30.475 50.298-54.891.414-1.138.793-2.285 1.164-3.434l8.792 3.2c1.106.403 2.262.603 3.414.603 1.654 0 3.301-.411 4.784-1.22 2.531-1.381 4.35-3.789 4.989-6.609 9.139-40.385-3.781-82.606-33.762-111.034zm-249.05 122.106c-9.852 21.128-27.342 37.154-49.248 45.128-21.906 7.973-45.605 6.938-66.734-2.913-21.127-9.853-37.154-27.343-45.127-49.249s-6.938-45.606 2.914-66.733c9.852-21.128 27.342-37.154 49.249-45.128 9.742-3.546 19.835-5.31 29.902-5.31 12.571 0 25.099 2.752 36.832 8.224 21.128 9.852 37.154 27.342 45.128 49.248 7.972 21.906 6.936 45.606-2.916 66.733zm-128.523-132.712 25.691-9.352 3.636 9.991c-4.435.946-8.835 2.202-13.172 3.78-4.337 1.579-8.51 3.453-12.517 5.58zm40.034-37.483 8.243 22.646c.699 1.921 2.497 3.223 4.539 3.287 38.972 1.241 74.247 23.502 92.074 58.134l-9.615 3.499c-9.844-18.567-25.359-33.379-44.739-42.416-16.22-7.564-33.8-10.464-51.151-8.633l-6.007-16.504c-.454-1.246-1.384-2.261-2.585-2.821-1.202-.56-2.577-.62-3.823-.167l-35.089 12.772c-1.246.453-2.261 1.384-2.822 2.585-.56 1.202-.62 2.577-.167 3.823l6.008 16.505c-14.468 9.75-26.073 23.27-33.636 39.491-9.036 19.378-11.411 40.697-7.019 61.246l-9.618 3.468c-8.591-37.952 4.123-77.68 33.179-103.681 1.523-1.362 2.063-3.515 1.364-5.436l-8.243-22.646zm255.056-116.498c-1.456-1.69-1.598-4.169-.346-6.029l9.22-13.688c.865-1.284 2.247-2.083 3.792-2.193 1.565-.115 3.042.49 4.087 1.645 31.121 34.43 48.261 78.909 48.261 125.242 0 6.672-.381 13.413-1.099 20.108l-25.284-9.203c.245-3.627.383-7.288.383-10.905 0-38.487-13.855-75.769-39.014-104.977zm106.476 273.45-9.629-3.505c3.821-18.065 2.455-36.953-4.112-54.385-.974-2.585-3.859-3.89-6.441-2.916-2.584.973-3.89 3.857-2.916 6.441 7.338 19.479 7.453 40.992.326 60.574-7.974 21.906-24 39.396-45.128 49.248-21.126 9.852-44.827 10.886-66.734 2.913-21.906-7.974-39.396-24-49.248-45.128-9.852-21.127-10.887-44.827-2.914-66.733 16.461-45.223 66.644-68.62 111.862-52.162 13.495 4.912 25.656 13.132 35.169 23.772 1.838 2.059 5.002 2.236 7.06.396 2.06-1.841 2.236-5.001.396-7.06-5.31-5.939-11.358-11.202-17.961-15.663l6.02-16.54c.944-2.595-.394-5.464-2.988-6.408l-35.088-12.771c-1.247-.453-2.622-.394-3.823.167-1.202.561-2.132 1.575-2.585 2.821l-6.007 16.505c-17.351-1.831-34.931 1.068-51.151 8.632-19.378 9.036-34.892 23.845-44.736 42.409l-9.605-3.529c17.813-34.595 53.089-56.855 92.061-58.097 2.043-.064 3.84-1.366 4.539-3.287l8.243-22.646 69.105 25.152-8.243 22.646c-.699 1.92-.159 4.073 1.364 5.436 29.055 26 41.768 65.729 33.164 103.718zm-59.003-109.454c-4.028-2.149-8.206-4.028-12.511-5.595-4.336-1.578-8.736-2.833-13.172-3.78l3.636-9.992 25.691 9.352z" fill="#2626bc"/><path d="m411.72 374.455 24.92 9.07c2.595.945 5.464-.394 6.409-2.988.944-2.595-.393-5.464-2.988-6.409l-24.92-9.07c-2.595-.945-5.464.394-6.409 2.988-.945 2.595.392 5.464 2.988 6.409z" fill="#d2deff"/><path d="m315.747 164.522c-2.762 0-5-2.238-5-5 0-3.309-2.691-6-6-6-2.762 0-5-2.238-5-5s2.238-5 5-5c3.309 0 6-2.691 6-6 0-2.762 2.238-5 5-5s5 2.238 5 5c0 3.309 2.691 6 6 6 2.762 0 5 2.238 5 5s-2.238 5-5 5c-3.309 0-6 2.691-6 6 0 2.762-2.238 5-5 5z" fill="#ff7eb8"/><path d="m267 446.788c-2.762 0-5-2.238-5-5 0-3.309-2.691-6-6-6-2.761 0-5-2.238-5-5s2.239-5 5-5c3.309 0 6-2.691 6-6 0-2.762 2.238-5 5-5s5 2.238 5 5c0 3.309 2.691 6 6 6 2.762 0 5 2.238 5 5s-2.238 5-5 5c-3.309 0-6 2.691-6 6 0 2.762-2.238 5-5 5z" fill="#01eca5"/><path d="m184 214.346c-2.761 0-5-2.238-5-5 0-3.309-2.691-6-6-6-2.761 0-5-2.238-5-5s2.239-5 5-5c3.309 0 6-2.691 6-6 0-2.762 2.239-5 5-5s5 2.238 5 5c0 3.309 2.691 6 6 6 2.761 0 5 2.238 5 5s-2.239 5-5 5c-3.309 0-6 2.691-6 6 0 2.762-2.239 5-5 5z" fill="#ff7eb8"/><path d="m246 232.732c-1.28 0-2.559-.488-3.536-1.465-1.953-1.952-1.953-5.118 0-7.07l10-10c1.953-1.952 5.12-1.954 7.071 0 1.953 1.952 1.953 5.118 0 7.07l-10 10c-.976.977-2.255 1.465-3.535 1.465z" fill="#6583fe"/><path d="m206 102.366c-1.28 0-2.559-.488-3.536-1.465-1.953-1.952-1.953-5.118 0-7.07l10-10c1.953-1.953 5.118-1.953 7.071 0 1.953 1.952 1.953 5.118 0 7.07l-10 10c-.976.976-2.255 1.465-3.535 1.465z" fill="#01eca5"/></svg>